<svg width="16" height="24" viewBox="0 0 16 24" fill="none" xmlns="http://www.w3.org/2000/svg">
<path d="M15.3173 15.3173C15.5693 15.5693 15.3907 16 15.0347 16H8.4C8.17867 16 8 16.1787 8 16.4V23.0347C8 23.3907 7.56933 23.5693 7.31733 23.3173L0.156 16.156C0.056 16.056 0 15.92 0 15.7787V8.4C0 8.17867 0.178667 8 0.4 8H8L15.3173 15.3173Z" fill="black"/>
<path d="M7.99996 8L0.682629 0.682667C0.430629 0.430667 0.609296 0 0.965296 0H15.6C15.8213 0 16 0.178667 16 0.4V7.6C16 7.82133 15.8213 8 15.6 8H7.99996Z" fill="black"/>
</svg>
