<svg width="18" height="24" viewBox="0 0 18 24" fill="none" xmlns="http://www.w3.org/2000/svg">
<path d="M5.70054 18.5606C5.70054 18.5606 4.78342 19.0939 6.35324 19.2744C8.25507 19.4913 9.22701 19.4603 11.3229 19.0636C11.3229 19.0636 11.8739 19.4091 12.6433 19.7083C7.94516 21.7219 2.01027 19.5917 5.70054 18.5606ZM5.12642 15.933C5.12642 15.933 4.09778 16.6944 5.66878 16.8569C7.70035 17.0665 9.3047 17.0836 12.0809 16.5491C12.0809 16.5491 12.4649 16.9383 13.0687 17.1512C7.3882 18.8123 1.0612 17.2822 5.12642 15.933Z" fill="#5382A1"/>
<path d="M9.96636 11.4757C11.124 12.8085 9.66221 14.0079 9.66221 14.0079C9.66221 14.0079 12.6016 12.4905 11.2517 10.5902C9.99089 8.81827 9.02396 7.93772 14.2583 4.90204C14.2583 4.90204 6.04214 6.95404 9.96636 11.4757" fill="#E76F00"/>
<path d="M16.1802 20.5041C16.1802 20.5041 16.8589 21.0633 15.4327 21.4959C12.7209 22.3175 4.14556 22.5656 1.76335 21.5287C0.907048 21.1562 2.51293 20.6392 3.01804 20.5307C3.54483 20.4164 3.84592 20.4378 3.84592 20.4378C2.89358 19.7668 -2.30957 21.7551 1.203 22.3244C10.7822 23.8779 18.6649 21.6249 16.1802 20.5041ZM6.14162 13.2104C6.14162 13.2104 1.77975 14.2465 4.59703 14.6227C5.78653 14.7819 8.15782 14.7459 10.3667 14.5608C12.1718 14.4086 13.9844 14.0848 13.9844 14.0848C13.9844 14.0848 13.3479 14.3574 12.8874 14.6719C8.45794 15.8368 -0.099007 15.2949 2.36443 14.1032C4.44776 13.0962 6.14169 13.2104 6.14169 13.2104H6.14162ZM13.9664 17.5842C18.4693 15.2444 16.3873 12.9959 14.9342 13.2988C14.578 13.3729 14.4192 13.4371 14.4192 13.4371C14.4192 13.4371 14.5515 13.23 14.804 13.1404C17.6787 12.1297 19.8896 16.1213 13.876 17.7021C13.876 17.7022 13.9457 17.6399 13.9664 17.5842Z" fill="#5382A1"/>
<path d="M11.2517 6.94876e-05C11.2517 6.94876e-05 13.7454 2.49471 8.8865 6.33054C4.9902 9.40763 7.99802 11.1621 8.8849 13.1666C6.61054 11.1146 4.94142 9.30819 6.06123 7.62699C7.70471 5.15896 12.2578 3.96244 11.2517 0" fill="#E76F00"/>
<path d="M6.58422 23.9246C10.9063 24.2013 17.5434 23.7711 17.7006 21.726C17.7006 21.726 17.3985 22.5013 14.1286 23.117C10.4396 23.8111 5.88975 23.7301 3.19116 23.2852C3.19123 23.2852 3.7436 23.7424 6.58429 23.9246" fill="#5382A1"/>
</svg>
