<svg width="24" height="24" viewBox="0 0 24 24" fill="none" xmlns="http://www.w3.org/2000/svg">
<path d="M23.1584 5.3964C23.167 5.4282 23.1714 5.46099 23.1715 5.49393V10.6141C23.1715 10.6798 23.1542 10.7444 23.1212 10.8013C23.0883 10.8581 23.0409 10.9053 22.9839 10.938L18.6864 13.4122V18.3163C18.6864 18.4498 18.6155 18.573 18.4998 18.6402L9.52919 23.8043C9.50865 23.8159 9.48625 23.8234 9.46385 23.8313C9.45545 23.8341 9.44752 23.8393 9.43865 23.8416C9.37595 23.8581 9.31003 23.8581 9.24732 23.8416C9.23706 23.8388 9.22772 23.8332 9.21792 23.8295C9.19739 23.822 9.17593 23.8155 9.15633 23.8043L0.187597 18.6402C0.130621 18.6075 0.0832804 18.5603 0.0503453 18.5034C0.0174103 18.4466 4.51443e-05 18.3821 0 18.3163L0 2.95576C0 2.92216 0.0046666 2.8895 0.0130665 2.85777C0.0158664 2.84703 0.0223997 2.83723 0.0261329 2.8265C0.0331328 2.8069 0.0396661 2.78683 0.0499326 2.76863C0.0569325 2.7565 0.067199 2.7467 0.0755988 2.7355C0.086332 2.72057 0.0961318 2.70517 0.108732 2.6921C0.119465 2.68137 0.133465 2.67343 0.145598 2.6641C0.159131 2.6529 0.171264 2.64077 0.186664 2.6319H0.18713L4.67173 0.0498725C4.72851 0.0171972 4.79288 0 4.85839 0C4.92391 0 4.98827 0.0171972 5.04506 0.0498725L9.52965 2.6319H9.53059C9.54552 2.64124 9.55812 2.6529 9.57165 2.66364C9.58379 2.67297 9.59732 2.68137 9.60805 2.69163C9.62112 2.70517 9.63045 2.72057 9.64165 2.7355C9.64958 2.7467 9.66032 2.7565 9.66685 2.76863C9.67758 2.7873 9.68365 2.8069 9.69112 2.8265C9.69485 2.83723 9.70138 2.84703 9.70418 2.85823C9.71278 2.89003 9.71717 2.92282 9.71725 2.95576V12.5498L13.4543 10.3981V5.49346C13.4543 5.46079 13.4589 5.42766 13.4673 5.3964C13.4706 5.3852 13.4767 5.3754 13.4804 5.36466C13.4879 5.34506 13.4944 5.325 13.5047 5.3068C13.5117 5.29466 13.5219 5.28486 13.5299 5.27366C13.5411 5.25873 13.5504 5.24333 13.5635 5.23026C13.5742 5.21953 13.5877 5.2116 13.5999 5.20227C13.6139 5.19107 13.626 5.17893 13.6409 5.17007H13.6414L18.1265 2.58804C18.1832 2.55532 18.2476 2.53809 18.3131 2.53809C18.3786 2.53809 18.443 2.55532 18.4998 2.58804L22.9844 5.17007C23.0002 5.1794 23.0124 5.19107 23.0264 5.2018C23.038 5.21113 23.0516 5.21953 23.0623 5.2298C23.0754 5.24333 23.0847 5.25873 23.0959 5.27366C23.1043 5.28486 23.1146 5.29466 23.1211 5.3068C23.1318 5.325 23.1379 5.34506 23.1454 5.36466C23.1496 5.3754 23.1556 5.3852 23.1584 5.3964ZM22.4239 10.3981V6.14025L20.8545 7.04371L18.6864 8.29202V12.5498L22.4244 10.3981H22.4239ZM17.9393 18.1003V13.8397L15.8067 15.0577L9.71678 18.5333V22.8341L17.9393 18.1003ZM0.747588 3.60209V18.1003L8.96919 22.8336V18.5338L4.67406 16.103L4.67266 16.102L4.67079 16.1011C4.65633 16.0927 4.6442 16.0806 4.63066 16.0703C4.619 16.061 4.60546 16.0535 4.5952 16.0432L4.59426 16.0418C4.58213 16.0302 4.57373 16.0157 4.56346 16.0026C4.55413 15.99 4.54293 15.9793 4.53546 15.9662L4.535 15.9648C4.5266 15.9508 4.52146 15.934 4.5154 15.9182C4.50933 15.9042 4.5014 15.8911 4.49766 15.8762V15.8757C4.493 15.858 4.49206 15.8393 4.4902 15.8211C4.48833 15.8071 4.4846 15.7931 4.4846 15.7791V5.75386L2.31696 4.50508L0.747588 3.60255V3.60209ZM4.85886 0.804928L1.12232 2.95576L4.85792 5.1066L8.594 2.9553L4.85792 0.804928H4.85886ZM6.80203 14.2279L8.96966 12.9801V3.60209L7.40029 4.50554L5.23219 5.75386V15.1319L6.80203 14.2279ZM18.3131 3.34309L14.577 5.49393L18.3131 7.64476L22.0487 5.49346L18.3131 3.34309ZM17.9393 8.29202L15.7712 7.04371L14.2018 6.14025V10.3981L16.3695 11.6459L17.9393 12.5498V8.29202ZM9.34252 17.887L14.8225 14.7585L17.5618 13.1952L13.8285 11.0458L9.53012 13.5205L5.61251 15.7758L9.34252 17.887Z" fill="#FF2D20"/>
</svg>
