<svg width="130" height="36" viewBox="0 0 130 36" fill="none" xmlns="http://www.w3.org/2000/svg">
<path d="M24.933 13.5197C28.2095 13.6422 31.4895 15.2117 33.6113 17.8736C37.3671 22.5854 36.6218 29.2203 31.8837 32.9795C26.103 37.5658 17.219 36.1233 3.77859 33.9263L0.924082 33.4643C3.96299 27.2579 9.02108 22.482 14.1635 19.0265C18.0035 16.4462 21.872 14.6144 24.9387 13.4739C24.9359 13.489 24.9359 13.5046 24.933 13.5197Z" fill="white"/>
<path d="M7.49597 2.38403C12.2339 -1.37506 18.8794 -0.605659 22.6352 4.10573C24.5081 6.45535 25.3441 9.48938 25.0899 12.3783C21.8759 13.5291 17.7279 15.4526 13.6163 18.2153C8.3613 21.7464 3.13373 26.6685 0 33.1208L0.241065 29.4903C1.12193 15.9304 1.71516 6.97051 7.49597 2.38403Z" fill="white"/>
<path d="M45.104 26V23.456H47.36V11.744H45.104V9.2H53.696C54.704 9.2 55.584 9.376 56.336 9.728C57.104 10.064 57.696 10.552 58.112 11.192C58.544 11.816 58.76 12.568 58.76 13.448V13.664C58.76 14.432 58.616 15.064 58.328 15.56C58.04 16.056 57.696 16.44 57.296 16.712C56.896 16.984 56.512 17.176 56.144 17.288V17.696C56.512 17.792 56.904 17.976 57.32 18.248C57.752 18.504 58.112 18.888 58.4 19.4C58.704 19.896 58.856 20.544 58.856 21.344V21.584C58.856 22.496 58.632 23.288 58.184 23.96C57.752 24.616 57.152 25.12 56.384 25.472C55.632 25.824 54.76 26 53.768 26H45.104ZM50.24 23.384H53.432C54.2 23.384 54.808 23.2 55.256 22.832C55.72 22.448 55.952 21.912 55.952 21.224V21.008C55.952 20.32 55.728 19.792 55.28 19.424C54.832 19.04 54.216 18.848 53.432 18.848H50.24V23.384ZM50.24 16.232H53.408C54.144 16.232 54.736 16.048 55.184 15.68C55.648 15.312 55.88 14.8 55.88 14.144V13.904C55.88 13.248 55.648 12.736 55.184 12.368C54.736 12 54.144 11.816 53.408 11.816H50.24V16.232Z" fill="white"/>
<path d="M66.9401 26.336C65.7561 26.336 64.7081 26.088 63.7961 25.592C62.9001 25.08 62.1961 24.368 61.6841 23.456C61.1881 22.528 60.9401 21.448 60.9401 20.216V19.928C60.9401 18.68 61.1881 17.6 61.6841 16.688C62.1801 15.776 62.8761 15.072 63.7721 14.576C64.6681 14.064 65.7001 13.808 66.8681 13.808C68.0201 13.808 69.0281 14.064 69.8921 14.576C70.7561 15.072 71.4281 15.776 71.9081 16.688C72.3881 17.6 72.6281 18.664 72.6281 19.88V20.864H63.7241C63.7561 21.792 64.0841 22.536 64.7081 23.096C65.3321 23.656 66.1001 23.936 67.0121 23.936C67.9081 23.936 68.5721 23.744 69.0041 23.36C69.4361 22.96 69.7641 22.512 69.9881 22.016L72.2681 23.192C72.0441 23.624 71.7161 24.088 71.2841 24.584C70.8681 25.064 70.3081 25.48 69.6041 25.832C68.9001 26.168 68.0121 26.336 66.9401 26.336ZM63.7481 18.776H69.8201C69.7561 17.992 69.4521 17.368 68.9081 16.904C68.3801 16.44 67.6921 16.208 66.8441 16.208C65.9641 16.208 65.2601 16.44 64.7321 16.904C64.2041 17.368 63.8761 17.992 63.7481 18.776Z" fill="white"/>
<path d="M75.3114 26V14.144H78.0234V15.512H78.4314C78.6074 15.016 78.9034 14.656 79.3194 14.432C79.7354 14.208 80.2314 14.096 80.8074 14.096H82.2474V16.544H80.7594C79.9594 16.544 79.3114 16.76 78.8154 17.192C78.3194 17.608 78.0714 18.256 78.0714 19.136V26H75.3114Z" fill="white"/>
<path d="M84.5364 26V9.2H87.2964V26H84.5364Z" fill="white"/>
<path d="M94.3162 26.336C93.4842 26.336 92.7322 26.192 92.0602 25.904C91.3882 25.6 90.8522 25.168 90.4522 24.608C90.0682 24.048 89.8762 23.36 89.8762 22.544C89.8762 21.744 90.0682 21.072 90.4522 20.528C90.8522 19.984 91.3962 19.576 92.0842 19.304C92.7722 19.016 93.5562 18.872 94.4362 18.872H97.8682V18.152C97.8682 17.528 97.6762 17.024 97.2922 16.64C96.9082 16.24 96.3082 16.04 95.4922 16.04C94.6922 16.04 94.0842 16.232 93.6682 16.616C93.2682 16.984 93.0042 17.464 92.8762 18.056L90.3322 17.216C90.5242 16.592 90.8282 16.024 91.2442 15.512C91.6762 15 92.2442 14.592 92.9482 14.288C93.6522 13.968 94.5162 13.808 95.5402 13.808C97.0922 13.808 98.3082 14.2 99.1882 14.984C100.084 15.752 100.532 16.872 100.532 18.344V23C100.532 23.48 100.756 23.72 101.204 23.72H102.212V26H100.268C99.6922 26 99.2202 25.856 98.8522 25.568C98.4842 25.28 98.3002 24.888 98.3002 24.392V24.344H97.8922C97.7962 24.568 97.6282 24.84 97.3882 25.16C97.1482 25.48 96.7802 25.76 96.2842 26C95.8042 26.224 95.1482 26.336 94.3162 26.336ZM94.7722 24.08C95.6842 24.08 96.4282 23.824 97.0042 23.312C97.5802 22.784 97.8682 22.08 97.8682 21.2V20.96H94.6042C94.0122 20.96 93.5322 21.088 93.1642 21.344C92.7962 21.6 92.6122 21.976 92.6122 22.472C92.6122 22.952 92.8042 23.344 93.1882 23.648C93.5722 23.936 94.1002 24.08 94.7722 24.08Z" fill="white"/>
<path d="M111.354 26.336C110.234 26.336 109.37 26.144 108.762 25.76C108.17 25.36 107.738 24.92 107.466 24.44H107.058V26H104.346V9.2H107.106V15.632H107.514C107.69 15.312 107.93 15.016 108.234 14.744C108.554 14.472 108.962 14.248 109.458 14.072C109.97 13.896 110.602 13.808 111.354 13.808C112.33 13.808 113.226 14.048 114.042 14.528C114.858 14.992 115.514 15.68 116.01 16.592C116.506 17.504 116.754 18.6 116.754 19.88V20.264C116.754 21.544 116.506 22.64 116.01 23.552C115.514 24.464 114.85 25.16 114.018 25.64C113.202 26.104 112.314 26.336 111.354 26.336ZM110.538 23.936C111.53 23.936 112.354 23.616 113.01 22.976C113.666 22.32 113.994 21.392 113.994 20.192V19.952C113.994 18.736 113.666 17.808 113.01 17.168C112.37 16.528 111.546 16.208 110.538 16.208C109.546 16.208 108.714 16.528 108.042 17.168C107.386 17.808 107.058 18.736 107.058 19.952V20.192C107.058 21.392 107.386 22.32 108.042 22.976C108.714 23.616 109.546 23.936 110.538 23.936Z" fill="white"/>
<path d="M124.42 26.336C122.884 26.336 121.62 26 120.628 25.328C119.636 24.656 119.036 23.672 118.828 22.376L121.372 21.728C121.484 22.336 121.684 22.816 121.972 23.168C122.26 23.52 122.612 23.768 123.028 23.912C123.46 24.056 123.924 24.128 124.42 24.128C125.172 24.128 125.732 23.992 126.1 23.72C126.484 23.448 126.676 23.104 126.676 22.688C126.676 22.256 126.492 21.936 126.124 21.728C125.772 21.52 125.228 21.344 124.492 21.2L123.748 21.08C122.932 20.92 122.188 20.704 121.516 20.432C120.844 20.144 120.3 19.76 119.884 19.28C119.484 18.784 119.284 18.16 119.284 17.408C119.284 16.256 119.708 15.368 120.556 14.744C121.42 14.12 122.548 13.808 123.94 13.808C125.268 13.808 126.364 14.104 127.228 14.696C128.092 15.288 128.652 16.08 128.908 17.072L126.364 17.84C126.236 17.168 125.956 16.696 125.524 16.424C125.092 16.136 124.564 15.992 123.94 15.992C123.3 15.992 122.804 16.104 122.452 16.328C122.116 16.552 121.948 16.872 121.948 17.288C121.948 17.704 122.124 18.016 122.476 18.224C122.828 18.432 123.3 18.584 123.892 18.68L124.636 18.824C125.516 18.984 126.308 19.192 127.012 19.448C127.732 19.704 128.3 20.072 128.716 20.552C129.132 21.032 129.34 21.68 129.34 22.496C129.34 23.728 128.892 24.68 127.996 25.352C127.116 26.008 125.924 26.336 124.42 26.336Z" fill="white"/>
</svg>
