<svg width="24" height="24" viewBox="0 0 24 24" fill="none" xmlns="http://www.w3.org/2000/svg">
<path d="M11.9538 14.1159C13.1224 14.1159 14.0697 13.1686 14.0697 12.0001C14.0697 10.8315 13.1224 9.88416 11.9538 9.88416C10.7852 9.88416 9.83789 10.8315 9.83789 12.0001C9.83789 13.1686 10.7852 14.1159 11.9538 14.1159Z" fill="#61DAFB"/>
<path d="M11.9537 16.335C18.2241 16.335 23.3073 14.3941 23.3073 12C23.3073 9.60583 18.2241 7.66498 11.9537 7.66498C5.68327 7.66498 0.600098 9.60583 0.600098 12C0.600098 14.3941 5.68327 16.335 11.9537 16.335Z" stroke="#61DAFB" stroke-width="1.2"/>
<path d="M8.19935 14.1675C11.3346 19.5978 15.557 23.0296 17.6304 21.8325C19.7038 20.6354 18.843 15.2628 15.7078 9.8325C12.5726 4.40216 8.35018 0.970424 6.27678 2.1675C4.20338 3.36458 5.06414 8.73716 8.19935 14.1675Z" stroke="#61DAFB" stroke-width="1.2"/>
<path d="M8.19952 9.83251C5.06431 15.2628 4.20355 20.6354 6.27695 21.8325C8.35035 23.0296 12.5728 19.5979 15.708 14.1675C18.8432 8.73718 19.7039 3.3646 17.6305 2.16752C15.5571 0.97044 11.3347 4.40217 8.19952 9.83251Z" stroke="#61DAFB" stroke-width="1.2"/>
</svg>
