<svg width="24" height="24" viewBox="0 0 24 24" fill="none" xmlns="http://www.w3.org/2000/svg">
<path d="M12.0501 10.607C12.0751 10.5829 12.0897 10.5499 12.0909 10.5151H12.0914C12.1082 9.85271 11.9549 9.33531 11.6361 8.97712C11.2994 8.59906 10.7837 8.40492 10.1032 8.40002C9.42389 8.40002 8.83875 8.61225 8.41084 9.01378C8.00615 9.39375 7.77778 9.91975 7.76749 10.4948C7.75014 11.4864 8.31034 12.117 8.93509 12.7273C9.41875 13.2249 9.50751 13.4709 9.50263 13.7516C9.49675 14.0764 9.34222 14.2627 9.07838 14.2627C8.96957 14.2627 8.88227 14.2289 8.81968 14.1624C8.72187 14.0597 8.67858 13.8741 8.69448 13.6257C8.69714 13.6091 8.6962 13.5921 8.69172 13.5759C8.68981 13.569 8.68729 13.5623 8.68417 13.5559C8.67997 13.5473 8.67473 13.5392 8.66856 13.5318C8.6562 13.5162 8.64053 13.5036 8.62268 13.4948C8.60484 13.486 8.58526 13.4812 8.56537 13.4809H7.13737C7.10254 13.4808 7.06905 13.4943 7.04399 13.5186C7.01893 13.5427 7.00428 13.5757 7.00313 13.6105C6.96962 14.2991 7.13003 14.8326 7.47995 15.1962C7.82472 15.5542 8.3431 15.7357 9.02165 15.7357C10.3504 15.7357 11.2236 14.9055 11.2463 13.6213C11.2602 12.8271 10.9705 12.2263 10.2474 11.548C9.69824 11.0154 9.50531 10.7054 9.51143 10.3643C9.51681 10.0584 9.70069 9.88327 9.9858 9.88327C10.2709 9.88327 10.4103 10.0794 10.4103 10.4821C10.4103 10.5713 10.4858 10.6447 10.5763 10.6447H11.9569C11.9917 10.6448 12.0251 10.6312 12.0501 10.607Z" fill="#0E100F"/>
<path d="M7.74206 11.8294V11.8262H7.74133C7.74256 11.7597 7.69634 11.6989 7.6308 11.6903C7.62518 11.6891 7.61907 11.6891 7.61319 11.6891H5.0873V11.692C5.022 11.6998 4.96895 11.7441 4.95598 11.8025L4.69288 12.9454C4.68938 12.9608 4.68949 12.9768 4.69317 12.9921C4.69686 13.0075 4.70404 13.0218 4.71416 13.0339C4.72734 13.0495 4.74374 13.0619 4.76224 13.0705C4.78074 13.079 4.80088 13.0834 4.82125 13.0833H5.20613C5.22838 13.0833 5.25748 13.0865 5.26799 13.1002C5.27802 13.1134 5.27728 13.143 5.26678 13.1811C5.19195 13.4558 5.01393 13.7567 4.79288 13.9308C4.5716 14.1047 4.20628 14.2088 3.95027 14.0519C3.66149 13.8746 3.61259 13.4469 3.6006 13.1428C3.57541 12.4894 3.7033 11.8334 3.95443 11.2294C4.13415 10.7971 4.47305 10.0171 5.04767 10.0171C5.37338 10.0171 5.53721 10.286 5.54943 10.8386C5.54973 10.851 5.55225 10.8631 5.55679 10.8744C5.56186 10.8871 5.56944 10.8987 5.57922 10.9086C5.59774 10.9272 5.62269 10.9381 5.64896 10.9388H7.14788C7.18292 10.9388 7.21655 10.9251 7.24162 10.9006C7.26669 10.8762 7.28123 10.8428 7.28211 10.8078C7.28114 10.0087 7.09872 9.39841 6.73928 8.993C6.39939 8.6098 5.91084 8.41787 5.28854 8.42325C3.24287 8.42325 2.18043 10.4902 1.95546 12.5386C1.83076 13.6296 2.03665 14.5353 2.53499 15.0884C2.91204 15.507 3.35657 15.719 4.0158 15.719C4.7496 15.719 5.29881 15.5562 5.74433 15.207C6.26809 14.7969 6.6647 14.114 6.95764 13.1203C6.96089 13.1093 6.96759 13.0997 6.97676 13.0928C6.98592 13.0859 6.99705 13.0822 7.0085 13.0821H7.32614C7.40046 13.0821 7.46502 13.0349 7.4792 12.9704L7.74206 11.8294Z" fill="#0E100F"/>
<path fill-rule="evenodd" clip-rule="evenodd" d="M16.37 15.4941L16.3791 8.66383C16.3793 8.64675 16.3761 8.62974 16.3698 8.61386C16.3669 8.60676 16.3634 8.59989 16.3593 8.59344C16.3543 8.5855 16.3484 8.57816 16.3418 8.57148C16.3362 8.5658 16.3301 8.56073 16.3237 8.55625C16.3161 8.55106 16.3081 8.54664 16.2996 8.54318C16.2838 8.53667 16.2668 8.53339 16.2497 8.53351H14.1131C14.0412 8.53351 14.0096 8.59535 13.9891 8.63619L10.8954 15.4522V15.4535L10.8942 15.4552C10.86 15.539 10.925 15.6288 11.0157 15.6288H12.5093C12.5899 15.6288 12.6435 15.6043 12.6697 15.5535L12.9663 14.8407C13.0027 14.7456 13.0095 14.7367 13.1132 14.7367H14.5402C14.6395 14.7367 14.6415 14.7387 14.64 14.8358L14.608 15.4985C14.6079 15.5058 14.6084 15.5131 14.6095 15.5202C14.611 15.5298 14.6136 15.5393 14.6173 15.5483C14.6236 15.5642 14.6331 15.5786 14.6451 15.5908C14.6572 15.6029 14.6715 15.6125 14.6873 15.619C14.7031 15.6256 14.72 15.6289 14.7371 15.6288H16.246C16.2647 15.629 16.2832 15.6252 16.3002 15.6175C16.3173 15.6098 16.3324 15.5985 16.3446 15.5843C16.3551 15.572 16.3628 15.5575 16.3672 15.5419C16.3716 15.5264 16.3725 15.5101 16.37 15.4941ZM13.7267 13.2137C13.7155 13.2137 13.7042 13.2133 13.693 13.2124C13.6877 13.212 13.6827 13.2104 13.6781 13.2078C13.6736 13.2052 13.6696 13.2016 13.6666 13.1973C13.6651 13.1953 13.6639 13.1931 13.6629 13.1908C13.6618 13.1883 13.6611 13.1857 13.6606 13.183C13.66 13.1801 13.6599 13.1771 13.6601 13.1742C13.6602 13.1719 13.6606 13.1696 13.6612 13.1674C13.6629 13.1618 13.665 13.155 13.6676 13.1471C13.6696 13.1412 13.6718 13.1348 13.6744 13.1278L14.7444 10.4801C14.754 10.454 14.7651 10.4285 14.7777 10.4036C14.795 10.3679 14.8161 10.3654 14.8227 10.3919C14.8283 10.4139 14.6999 13.1105 14.6999 13.1105C14.6899 13.2115 14.6853 13.2156 14.5857 13.2239L13.7277 13.2142H13.7257L13.7267 13.2137Z" fill="#0E100F"/>
<path fill-rule="evenodd" clip-rule="evenodd" d="M18.2795 8.53351H19.4138L19.415 8.53279C21.088 8.53279 21.9233 9.29107 21.8969 10.7875C21.8661 12.541 20.7975 13.8296 19.1886 14.1267C18.96 14.1688 18.7274 14.1851 18.4951 14.1839L17.7183 14.1805C17.7056 14.1804 17.6933 14.1854 17.6841 14.1942C17.675 14.2031 17.6697 14.2152 17.6694 14.2279C17.6692 14.2365 17.6715 14.245 17.676 14.2524C17.6804 14.2597 17.6869 14.2657 17.6946 14.2695L17.7892 14.3187L18.0337 14.4463L18.2795 14.5742C18.3048 14.5874 18.3303 14.6007 18.3558 14.6138C18.41 14.6422 18.4311 14.6891 18.4188 14.7498L18.2467 15.5266C18.2325 15.5914 18.1804 15.6288 18.1041 15.6288H16.6864C16.6661 15.6288 16.646 15.6244 16.6275 15.6159C16.6091 15.6073 16.5927 15.5949 16.5796 15.5794C16.5694 15.5673 16.5622 15.5529 16.5585 15.5375C16.5547 15.5221 16.5546 15.5061 16.558 15.4907L18.1367 8.63673C18.1523 8.56533 18.2196 8.53351 18.2795 8.53351ZM18.9974 12.6122H19.0277C19.7723 12.5821 20.1782 11.7023 20.1931 10.8486C20.2016 10.3555 20.0217 10.0667 19.6989 10.0569H18.6619C18.6493 10.0569 18.6373 10.0618 18.6283 10.0705C18.6193 10.0793 18.614 10.0913 18.6137 10.1039C18.6135 10.1124 18.6157 10.121 18.6201 10.1284C18.6244 10.1359 18.6308 10.1419 18.6384 10.1459C18.6384 10.1459 19.2942 10.4916 19.3392 10.5166C19.3744 10.5359 19.3749 10.5687 19.3634 10.6257C19.3633 10.6269 19.2629 11.0681 19.1572 11.5333C19.0392 12.0524 18.9146 12.6015 18.9152 12.6024C18.9172 12.6048 18.9292 12.6122 18.9974 12.6122Z" fill="#0E100F"/>
</svg>
