<svg width="24" height="24" viewBox="0 0 24 24" fill="none" xmlns="http://www.w3.org/2000/svg">
<path d="M0 0H24V24H0V0Z" fill="#017ACB"/>
<path d="M11.524 8.88752H12.6752V10.875H9.5627V19.7175L9.4802 19.74C9.3677 19.77 7.88645 19.77 7.5677 19.7363L7.3127 19.7138V10.875H4.2002V8.88752L5.18645 8.87627C5.72645 8.86877 7.11395 8.86877 8.26895 8.87627C9.42395 8.88377 10.8865 8.88752 11.524 8.88752ZM20.3102 18.78C19.8527 19.2638 19.3615 19.5338 18.544 19.755C18.1877 19.8525 18.1277 19.8563 17.3252 19.8525C16.5227 19.8488 16.459 19.8488 16.069 19.7475C15.0602 19.4888 14.2465 18.9825 13.6915 18.2663C13.534 18.0638 13.2752 17.6438 13.2752 17.5913C13.2752 17.5763 13.3127 17.5425 13.3615 17.52C13.4102 17.4975 13.5115 17.4338 13.594 17.385C13.6765 17.3363 13.8265 17.2463 13.9277 17.1938C14.029 17.1413 14.3215 16.9688 14.5765 16.815C14.8315 16.6613 15.064 16.5375 15.0902 16.5375C15.1165 16.5375 15.1652 16.59 15.2027 16.6538C15.4277 17.0325 15.9527 17.5163 16.324 17.6813C16.5527 17.7788 17.059 17.8875 17.3027 17.8875C17.5277 17.8875 17.9402 17.79 18.1615 17.6888C18.3977 17.58 18.5177 17.4713 18.6602 17.2538C18.7577 17.1 18.769 17.0588 18.7652 16.7663C18.7652 16.4963 18.7502 16.4213 18.6752 16.2975C18.4652 15.9525 18.1802 15.7725 17.0252 15.2625C15.8327 14.7338 15.2965 14.4188 14.8615 13.995C14.539 13.68 14.4752 13.5938 14.2727 13.2C14.0102 12.6938 13.9765 12.5288 13.9727 11.775C13.969 11.2463 13.9802 11.0738 14.0365 10.8938C14.1152 10.6238 14.3702 10.1025 14.4865 9.97127C14.7265 9.69002 14.8127 9.60377 14.9815 9.46502C15.4915 9.04502 16.2865 8.76752 17.0477 8.74127C17.134 8.74127 17.419 8.75627 17.6852 8.77502C18.4502 8.83877 18.9715 9.02627 19.474 9.42752C19.8527 9.72752 20.4265 10.4325 20.3702 10.5263C20.3327 10.5825 18.8365 11.58 18.739 11.61C18.679 11.6288 18.6377 11.6063 18.5552 11.5088C18.0452 10.8975 17.839 10.7663 17.344 10.7363C16.9915 10.7138 16.804 10.755 16.5677 10.9125C16.3202 11.0775 16.2002 11.3288 16.2002 11.6775C16.204 12.1875 16.399 12.4275 17.119 12.7838C17.584 13.0125 17.9815 13.2 18.0115 13.2C18.0565 13.2 19.0202 13.68 19.2715 13.83C20.4415 14.5163 20.9177 15.2213 21.0415 16.4363C21.1315 17.3513 20.8727 18.1875 20.3102 18.78Z" fill="white"/>
</svg>
