<svg width="24" height="24" viewBox="0 0 24 24" fill="none" xmlns="http://www.w3.org/2000/svg">
<path d="M1.70581 11.9997C1.70581 16.0746 4.07382 19.5958 7.50763 21.2647L2.59707 7.8102C2.00841 9.12841 1.7047 10.556 1.70581 11.9997ZM18.9497 11.4802C18.9497 10.208 18.4927 9.32691 18.1007 8.64113C17.5789 7.79316 17.09 7.07506 17.09 6.22709C17.09 5.28078 17.8075 4.3999 18.8184 4.3999C18.8641 4.3999 18.9073 4.40559 18.952 4.40813C17.1203 2.73021 14.6802 1.70575 12.0002 1.70575C8.40379 1.70575 5.23971 3.55095 3.39901 6.34579C3.64054 6.35304 3.86835 6.35794 4.06148 6.35794C5.13825 6.35794 6.805 6.22728 6.805 6.22728C7.35993 6.19457 7.42536 7.00963 6.87121 7.07525C6.87121 7.07525 6.31334 7.14087 5.69279 7.17339L9.44157 18.3239L11.6946 11.5674L10.0905 7.1732C9.53618 7.14068 9.01102 7.07506 9.01102 7.07506C8.45628 7.04254 8.52132 6.19438 9.07605 6.22709C9.07605 6.22709 10.7761 6.35774 11.7876 6.35774C12.8642 6.35774 14.5312 6.22709 14.5312 6.22709C15.0865 6.19438 15.1517 7.00944 14.5972 7.07506C14.5972 7.07506 14.0383 7.14068 13.4189 7.1732L17.1391 18.2393L18.1657 14.8081C18.611 13.3842 18.9497 12.3615 18.9497 11.4802Z" fill="#00749A"/>
<path d="M12.1807 12.9002L9.09204 21.875C10.0363 22.1533 11.0157 22.2946 12.0001 22.2946C13.1989 22.2946 14.3485 22.0872 15.4186 21.7111C15.3899 21.6662 15.3654 21.6187 15.3454 21.5693L12.1807 12.9002ZM21.033 7.06073C21.0773 7.38864 21.1023 7.74083 21.1023 8.11927C21.1023 9.16391 20.9072 10.3382 20.3196 11.8065L17.1751 20.898C20.2356 19.1133 22.2941 15.7976 22.2941 11.9997C22.2968 10.2734 21.863 8.5744 21.033 7.06073Z" fill="#00749A"/>
<path d="M12.0001 0C5.38342 0 0 5.38302 0 11.9997C0 18.6172 5.38323 24.0002 12.0001 24.0002C18.6166 24.0002 24.0008 18.6174 24.0008 11.9997C24.0006 5.38302 18.6166 0 12.0001 0ZM12.0001 23.45C5.68684 23.45 0.550232 18.3134 0.550232 11.9997C0.550232 5.68664 5.68665 0.550427 12.0001 0.550427C18.3132 0.550427 23.4494 5.68664 23.4494 11.9997C23.4494 18.3134 18.313 23.45 12.0001 23.45Z" fill="#00749A"/>
</svg>
