<svg preserveAspectRatio="none" width="100%" height="100%" overflow="visible" style="display: block;" viewBox="0 0 20 20" fill="none" xmlns="http://www.w3.org/2000/svg">
<g id="logomark">
<path id="Vector" fill-rule="evenodd" clip-rule="evenodd" d="M12.7779 5.84265C11.9556 5.29325 10.9889 5 10 5V0C11.9778 0 13.9112 0.58649 15.5557 1.6853C17.2002 2.78411 18.4819 4.34591 19.2388 6.17315C19.9957 8.0004 20.1937 10.0111 19.8078 11.9509C19.422 13.8907 18.4696 15.6726 17.0711 17.0711C15.6726 18.4696 13.8907 19.422 11.9509 19.8078C10.0111 20.1937 8.0004 19.9957 6.17315 19.2388C4.34591 18.4819 2.78411 17.2002 1.6853 15.5557C0.58649 13.9112 0 11.9778 0 10H5C5 10.9889 5.29325 11.9556 5.84265 12.7779C6.39205 13.6001 7.17295 14.241 8.0866 14.6194C9.0002 14.9979 10.0055 15.0969 10.9754 14.9039C11.9453 14.711 12.8363 14.2348 13.5356 13.5356C14.2348 12.8363 14.711 11.9453 14.9039 10.9754C15.0969 10.0055 14.9979 9.0002 14.6194 8.0866C14.241 7.17295 13.6001 6.39205 12.7779 5.84265Z" fill="var(--fill-0, #007DFC)"/>
<path id="Vector_2" fill-rule="evenodd" clip-rule="evenodd" d="M5 2.16562e-06C5 0.65661 4.87068 1.30679 4.6194 1.91341C4.36813 2.52004 3.99983 3.07124 3.53553 3.53554C3.07125 3.99983 2.52004 4.36813 1.91341 4.6194C1.30678 4.87067 0.65661 5 2.18555e-07 5L0 10C1.31322 10 2.61357 9.74135 3.82684 9.2388C5.0401 8.73625 6.1425 7.99965 7.07105 7.07105C7.99965 6.1425 8.73625 5.0401 9.2388 3.82683C9.74135 2.61357 10 1.31322 10 0L5 2.16562e-06Z" fill="var(--fill-0, #007DFC)"/>
</g>
</svg>
