<svg preserveAspectRatio="none" width="100%" height="100%" overflow="visible" style="display: block;" viewBox="0 0 33.5 37" fill="none" xmlns="http://www.w3.org/2000/svg">
<path id="Icon" d="M32.5 6.25C32.5 9.1495 25.4485 11.5 16.75 11.5C8.05151 11.5 1 9.1495 1 6.25M32.5 6.25C32.5 3.35051 25.4485 1 16.75 1C8.05151 1 1 3.35051 1 6.25M32.5 6.25V30.75C32.5 33.655 25.5 36 16.75 36C8 36 1 33.655 1 30.75V6.25M32.5 18.5C32.5 21.405 25.5 23.75 16.75 23.75C8 23.75 1 21.405 1 18.5" stroke="var(--stroke-0, #2571DF)" stroke-width="2" stroke-linecap="round" stroke-linejoin="round"/>
</svg>
