<svg preserveAspectRatio="none" width="100%" height="100%" overflow="visible" style="display: block;" viewBox="0 0 31 31" fill="none" xmlns="http://www.w3.org/2000/svg">
<g id="figma">
<path id="Vector" d="M10.3333 31C13.1853 31 15.5 28.6853 15.5 25.8334V20.6667H10.3333C7.48133 20.6667 5.16666 22.9814 5.16666 25.8334C5.16666 28.6853 7.48133 31 10.3333 31Z" fill="var(--fill-0, #0ACF83)"/>
<path id="Vector_2" d="M5.16666 15.5C5.16666 12.648 7.48133 10.3333 10.3333 10.3333H15.5V20.6666H10.3333C7.48133 20.6666 5.16666 18.352 5.16666 15.5Z" fill="var(--fill-0, #A259FF)"/>
<path id="Vector_3" d="M5.16666 5.16666C5.16666 2.31467 7.48133 0 10.3333 0H15.5V10.3333H10.3333C7.48133 10.3333 5.16666 8.01866 5.16666 5.16666Z" fill="var(--fill-0, #F24E1E)"/>
<path id="Vector_4" d="M15.5 0H20.6667C23.5187 0 25.8333 2.31467 25.8333 5.16666C25.8333 8.01866 23.5187 10.3333 20.6667 10.3333H15.5V0Z" fill="var(--fill-0, #FF7262)"/>
<path id="Vector_5" d="M25.8333 15.5C25.8333 18.352 23.5187 20.6666 20.6667 20.6666C17.8147 20.6666 15.5 18.352 15.5 15.5C15.5 12.648 17.8147 10.3333 20.6667 10.3333C23.5187 10.3333 25.8333 12.648 25.8333 15.5Z" fill="var(--fill-0, #1ABCFE)"/>
</g>
</svg>
