<svg preserveAspectRatio="none" width="100%" height="100%" overflow="visible" style="display: block;" viewBox="0 0 32 31.2101" fill="none" xmlns="http://www.w3.org/2000/svg">
<g id="github">
<path id="Vector" d="M10.4648 29.3359C10.3551 29.2904 10.247 29.2415 10.1387 29.1934C10.245 29.1954 10.353 29.1947 10.4629 29.1924C10.4633 29.2412 10.4644 29.2891 10.4648 29.3359ZM16 1.5625C23.9734 1.5625 30.4375 8.02627 30.4375 16C30.4375 22.0113 26.7644 27.1637 21.5371 29.335C21.5381 29.1799 21.5389 29.012 21.54 28.832C21.5447 28.0663 21.5498 27.097 21.5498 26.0225C21.5498 25.3666 21.467 24.7607 21.3184 24.2139C22.5613 23.8932 23.8167 23.3672 24.8936 22.4658C26.7124 20.9434 27.7695 18.5786 27.7695 15.1641C27.7695 13.3592 27.2213 11.8033 26.29 10.5234C26.5056 9.52568 26.603 7.9484 25.8574 6.06152L25.585 5.37305L24.8809 5.14746L24.4131 6.6084C24.8811 5.14818 24.8794 5.14696 24.8779 5.14648C24.8774 5.14633 24.876 5.14583 24.875 5.14551C24.873 5.14486 24.8703 5.14421 24.8682 5.14355C24.8641 5.1423 24.8597 5.14092 24.8555 5.13965C24.8469 5.13704 24.8375 5.1345 24.8281 5.13184C24.8094 5.12649 24.7892 5.12066 24.7676 5.11523C24.7238 5.10428 24.6736 5.09401 24.6182 5.08398C24.5073 5.06395 24.3743 5.04721 24.2188 5.04004C23.9061 5.02567 23.5101 5.04901 23.0293 5.15039C22.1878 5.32786 21.0955 5.74088 19.7246 6.5957C18.6933 6.36089 17.6277 6.22473 16.5654 6.18652L16.0068 6.1748H15.9932C14.7473 6.18032 13.4876 6.31942 12.2764 6.5957C10.9044 5.74128 9.81163 5.32773 8.96973 5.15039C8.48863 5.04909 8.093 5.02569 7.78027 5.04004C7.62437 5.04719 7.49085 5.06394 7.37988 5.08398C7.32464 5.09397 7.27512 5.10433 7.23145 5.11523C7.20957 5.1207 7.18885 5.12645 7.16992 5.13184C7.16056 5.1345 7.15122 5.13704 7.14258 5.13965C7.13832 5.14094 7.13397 5.14228 7.12988 5.14355L7.12109 5.14648C7.11959 5.14696 7.11744 5.14761 7.59375 6.63574L7.11816 5.14746L6.41211 5.37305L6.14062 6.0625C5.39706 7.94886 5.49344 9.52585 5.70898 10.5234C4.77976 11.8014 4.22859 13.3573 4.22852 15.1641C4.22852 17.4905 4.72028 19.3304 5.60938 20.749C5.43559 20.7136 5.25441 20.6871 5.06543 20.6738L5.02051 20.6709L4.97559 20.6699L4.95801 22.0449C4.97588 20.6699 4.97508 20.6699 4.97461 20.6699H4.92578C4.9025 20.6701 4.87192 20.6707 4.83691 20.6719C4.76833 20.6743 4.67294 20.6794 4.56348 20.6914C4.40642 20.7087 3.98284 20.7613 3.58301 20.9893C3.36629 21.1128 3.01478 21.368 2.81055 21.8369C2.8078 21.8432 2.80539 21.8501 2.80273 21.8564C2.00707 20.0661 1.5625 18.0851 1.5625 16C1.56253 8.02637 8.02746 1.56253 16 1.5625ZM9.34961 23.7881C9.60341 23.8901 9.8593 23.9809 10.1162 24.0615C10.1003 24.0605 10.0842 24.062 10.0684 24.0605C9.85238 24.0413 9.60664 23.9786 9.34961 23.7881Z" fill="var(--fill-0, #161614)" stroke="var(--stroke-0, #1A1615)" stroke-width="3.125"/>
<path id="Vector_2" d="M5.99253 22.7925C5.95739 22.8719 5.83215 22.8958 5.71834 22.8413C5.60226 22.7891 5.53701 22.6807 5.57466 22.6009C5.60917 22.5191 5.7344 22.4962 5.85022 22.5512C5.96655 22.6033 6.03281 22.7127 5.99253 22.7925V22.7925ZM6.77957 23.4947C6.70328 23.5655 6.55408 23.5326 6.45281 23.4208C6.34815 23.3092 6.32858 23.1602 6.406 23.0883C6.48468 23.0176 6.62937 23.0506 6.73427 23.1623C6.83893 23.2751 6.85926 23.4233 6.77945 23.4948L6.77957 23.4947ZM7.31954 24.3932C7.22141 24.4613 7.06104 24.3975 6.96203 24.2552C6.86403 24.113 6.86403 23.9423 6.96416 23.8739C7.06355 23.8055 7.22141 23.867 7.3218 24.0082C7.41968 24.1529 7.41968 24.3235 7.31941 24.3933L7.31954 24.3932ZM8.23258 25.4338C8.14486 25.5305 7.95814 25.5046 7.82136 25.3726C7.68157 25.2436 7.64254 25.0605 7.73051 24.9638C7.81923 24.8669 8.00708 24.8941 8.14486 25.025C8.28377 25.1538 8.32619 25.3382 8.2327 25.4338H8.23258ZM9.41265 25.7852C9.37412 25.9104 9.19417 25.9674 9.01297 25.9142C8.83202 25.8594 8.71356 25.7125 8.75008 25.5859C8.78773 25.4598 8.96843 25.4005 9.15101 25.4574C9.33171 25.512 9.45042 25.6577 9.41277 25.7852H9.41265ZM10.7558 25.9342C10.7604 26.0662 10.6066 26.1756 10.4164 26.178C10.225 26.1821 10.0703 26.0753 10.0683 25.9456C10.0683 25.8123 10.2185 25.7039 10.4098 25.7007C10.6 25.697 10.7558 25.803 10.7558 25.9342V25.9342ZM12.0752 25.8836C12.098 26.0123 11.9658 26.1446 11.7769 26.1797C11.5912 26.2136 11.4193 26.1342 11.3956 26.0066C11.3725 25.8745 11.5073 25.7424 11.6926 25.7082C11.8818 25.6753 12.0511 25.7527 12.0752 25.8836" fill="var(--fill-0, #161614)"/>
</g>
</svg>
