<svg preserveAspectRatio="none" width="100%" height="100%" overflow="visible" style="display: block;" viewBox="0 0 30 30" fill="none" xmlns="http://www.w3.org/2000/svg">
<g id="miro">
<path id="Vector" d="M6.49897 0H23.501C27.0879 0 30 2.9121 30 6.49896V23.501C30 27.0879 27.0879 30 23.501 30H6.49897C2.91211 30 0 27.0879 0 23.501V6.49896C0 2.9121 2.91211 0 6.49897 0Z" fill="var(--fill-0, #FFD02F)"/>
<path id="Vector_2" d="M20.8464 3.74668H17.5525L20.2959 8.56763L14.2587 3.74668H10.9648L13.9834 9.64191L7.67091 3.74668H4.37704L7.67091 11.2489L4.37704 26.2533H7.67091L13.9834 10.1746L10.9648 26.2533H14.2587L20.2959 9.10921L17.5525 26.2533H20.8464L26.8837 7.49335L20.8464 3.74668Z" fill="var(--fill-0, #050038)"/>
</g>
</svg>
