<svg preserveAspectRatio="none" width="100%" height="100%" overflow="visible" style="display: block;" viewBox="0 0 42 42" fill="none" xmlns="http://www.w3.org/2000/svg">
<g id="Logo">
<path d="M29.0885 15.773C32.9111 15.9158 36.7378 17.747 39.2132 20.8525C43.5949 26.3496 42.7254 34.0904 37.1976 38.4761C30.4535 43.8268 20.0888 42.1438 4.40836 39.5806L1.0781 39.0417C4.62349 31.8009 10.5246 26.2289 16.5241 22.1976C21.0041 19.1873 25.5173 17.0501 29.0952 15.7196C29.0919 15.7372 29.0919 15.7554 29.0885 15.773Z" fill="var(--fill-0, #2B7FFF)"/>
<path d="M8.74529 2.78137C14.2729 -1.60424 22.0259 -0.706602 26.4078 4.79002C28.5928 7.53124 29.5681 11.0709 29.2715 14.4413C25.5219 15.7839 20.6825 18.028 15.8857 21.2511C9.75485 25.3708 3.65602 31.1133 0 38.6409L0.281242 34.4053C1.30892 18.5855 2.00102 8.13226 8.74529 2.78137Z" fill="var(--fill-0, #2B7FFF)"/>
</g>
</svg>
