<svg xmlns="http://www.w3.org/2000/svg" viewBox="0 0 64 64">
  <rect width="64" height="64" rx="14" fill="#ffffff"/>
  <rect x="8" y="8" width="22" height="22" rx="3" fill="#f47920"/>
  <path d="M12 12h5l9 14h-5L12 12Z" fill="#ffffff"/>
  <path d="M26 12h-5l-9 14h5l9-14Z" fill="#ffffff"/>
  <path d="M34 15h9.5c6.5 0 10.5 3.4 10.5 8.8 0 3.3-1.7 5.8-4.7 7.1 3.9 1.2 6.2 4 6.2 8 0 6.2-4.5 10.1-11.8 10.1H34V15Z" fill="#006b85"/>
  <path d="M40.5 21.4v7h3c2.6 0 4.1-1.3 4.1-3.6 0-2.2-1.5-3.4-4.2-3.4h-2.9Z" fill="#ffffff"/>
  <path d="M40.5 34.3v8.2h3.7c3 0 4.7-1.5 4.7-4.1 0-2.6-1.8-4.1-4.9-4.1h-3.5Z" fill="#ffffff"/>
  <path d="M10 45h18v5H10v-5Z" fill="#f47920"/>
</svg>
